<svg width="22" height="24" viewBox="0 0 22 24" fill="none" xmlns="http://www.w3.org/2000/svg">
<path d="M18.8373 18.4938L17.3081 6.0293C17.2624 5.8043 17.0831 5.625 16.8581 5.625H13.5727V4.36464C13.5727 1.75428 12.1331 0 9.97271 0C7.81235 0 6.37271 1.75428 6.37271 4.36464V5.625H2.81843C2.59343 5.625 2.41413 5.8043 2.36843 6.0293L0.839148 18.4938C0.749499 19.1231 0.974498 19.7981 1.37879 20.2481C1.78309 20.7438 2.41415 21.0128 3.04343 21.0128H16.5893C17.2186 21.0128 17.8497 20.7421 18.254 20.2481C18.7022 19.7999 18.9272 19.1249 18.8376 18.4938H18.8373ZM7.2728 4.4084C7.2728 2.78768 7.99352 0.943757 9.9728 0.943757C11.9521 0.943757 12.6728 2.78948 12.6728 4.4084V5.66876H7.2728V4.4084ZM17.6228 19.6643C17.3521 19.935 16.9935 20.1143 16.6332 20.1143H3.04361C2.63931 20.1143 2.27897 19.935 2.05397 19.6643C1.82897 19.3936 1.69362 18.9893 1.73932 18.585L3.22292 6.56867H16.452L17.9374 18.6291C17.9831 18.9895 17.8477 19.3938 17.6227 19.6645L17.6228 19.6643Z" fill="black"/>
<rect x="11.4285" y="14" width="10" height="10" rx="5" fill="#E71500"/>
<path d="M16.4342 22C16.0538 22 15.7147 21.9354 15.4169 21.8061C15.1211 21.6768 14.8857 21.4971 14.7109 21.2671C14.538 21.0352 14.4438 20.7662 14.4285 20.4601H15.1547C15.1701 20.6483 15.2354 20.8108 15.3507 20.9477C15.4659 21.0827 15.6167 21.1873 15.8031 21.2614C15.9895 21.3356 16.196 21.3726 16.4227 21.3726C16.6763 21.3726 16.9011 21.3289 17.0971 21.2414C17.293 21.154 17.4467 21.0323 17.5582 20.8764C17.6696 20.7205 17.7253 20.5399 17.7253 20.3346C17.7253 20.1198 17.6715 19.9306 17.5639 19.7671C17.4563 19.6017 17.2988 19.4724 17.0913 19.3793C16.8838 19.2861 16.6302 19.2395 16.3305 19.2395H15.8579V18.6122H16.3305C16.5649 18.6122 16.7704 18.5703 16.9472 18.4867C17.1259 18.403 17.2652 18.2852 17.3651 18.1331C17.4669 17.981 17.5178 17.8023 17.5178 17.597C17.5178 17.3992 17.4736 17.2272 17.3852 17.0808C17.2969 16.9344 17.172 16.8203 17.0106 16.7386C16.8511 16.6568 16.6629 16.616 16.4458 16.616C16.2421 16.616 16.05 16.653 15.8694 16.7272C15.6907 16.7994 15.5447 16.9049 15.4313 17.0437C15.318 17.1806 15.2565 17.346 15.2469 17.5399H14.5553C14.5668 17.2338 14.66 16.9658 14.8348 16.7357C15.0096 16.5038 15.2383 16.3232 15.5207 16.1939C15.805 16.0646 16.1172 16 16.4573 16C16.8223 16 17.1355 16.0732 17.3968 16.2196C17.6581 16.3641 17.8588 16.5551 17.9991 16.7928C18.1393 17.0304 18.2094 17.2871 18.2094 17.5627C18.2094 17.8916 18.122 18.1721 17.9472 18.404C17.7743 18.6359 17.5389 18.7966 17.2411 18.8859V18.9316C17.6139 18.9924 17.9049 19.1492 18.1143 19.4021C18.3238 19.653 18.4285 19.9639 18.4285 20.3346C18.4285 20.6521 18.3411 20.9373 18.1662 21.1901C17.9933 21.4411 17.757 21.6388 17.4573 21.7833C17.1576 21.9278 16.8166 22 16.4342 22Z" fill="white"/>
</svg>
