<svg width="27" height="35" viewBox="0 0 27 35" fill="none" xmlns="http://www.w3.org/2000/svg">
<path d="M13.2326 26C20.3043 26 26.0371 20.1797 26.0371 13C26.0371 5.82029 20.3043 0 13.2326 0C6.16096 0 0.428223 5.82029 0.428223 13C0.428223 20.1797 6.16096 26 13.2326 26Z" fill="#E1E1E1"/>
<path d="M13.2316 15.0893C16.1361 15.0893 18.4906 12.6988 18.4906 9.75004C18.4906 6.80124 16.1361 4.41077 13.2316 4.41077C10.3272 4.41077 7.97266 6.80124 7.97266 9.75004C7.97266 12.6988 10.3272 15.0893 13.2316 15.0893Z" fill="white"/>
<path d="M13.2316 34.125C18.4091 34.125 22.6063 29.8637 22.6063 24.6071C22.6063 19.3506 18.4091 15.0893 13.2316 15.0893C8.05412 15.0893 3.85693 19.3506 3.85693 24.6071C3.85693 29.8637 8.05412 34.125 13.2316 34.125Z" fill="white"/>
</svg>
