<svg width="17" height="16" viewBox="0 0 17 16" fill="none" xmlns="http://www.w3.org/2000/svg">
<path fill-rule="evenodd" clip-rule="evenodd" d="M15.7338 16C16.2809 16 16.6681 15.5792 16.6681 15.0405C16.6681 14.788 16.5839 14.5439 16.3987 14.3672L12.4345 10.3945C13.2678 9.30037 13.7643 7.94529 13.7643 6.47238C13.7643 2.91215 10.8522 0 7.29196 0C3.74015 0 0.81958 2.90373 0.81958 6.47238C0.81958 10.0326 3.73173 12.9448 7.29196 12.9448C8.69754 12.9448 9.9937 12.4903 11.0542 11.7328L15.0437 15.7223C15.2288 15.9074 15.4729 16 15.7338 16ZM7.29196 11.5476C4.51448 11.5476 2.21674 9.24987 2.21674 6.47238C2.21674 3.6949 4.51448 1.39716 7.29196 1.39716C10.0694 1.39716 12.3672 3.6949 12.3672 6.47238C12.3672 9.24987 10.0694 11.5476 7.29196 11.5476Z" fill="black"/>
</svg>
